# Wavefront OBJ exported by MilkShape 3D

v -1.144740 -10.691822 3.999265
v -1.144740 -10.691822 0.736105
v -1.144739 -7.639177 3.999264
v -1.144739 -7.639175 0.736105
v 2.118428 -7.639176 3.999264
v 2.118428 -7.639175 0.736104
v 2.118429 -10.691816 3.999264
v 2.118429 -10.691816 0.736105
v -1.120241 -9.116249 3.624764
v -1.120240 -9.838757 1.843007
v -0.318117 1.705943 0.069338
v -0.318117 0.983433 -1.373084
v 1.326562 1.705937 0.069339
v 1.326564 0.983431 -1.373082
v 2.128684 -9.116249 3.624766
v 2.128682 -9.838757 1.843007
# 16 vertices

vt 1.000000 1.000000
vt 0.000000 0.000000
vt 0.000000 1.000000
vt 1.000000 0.000000
# 4 texture coordinates

vn -1.000000 0.000000 0.000000
vn -0.000000 1.000000 0.000000
vn 1.000000 0.000000 0.000000
vn 0.000002 -1.000000 0.000000
vn 0.000000 0.000000 1.000000
vn -0.000000 -0.000000 -1.000000
vn -0.997467 0.064795 -0.029344
vn -0.997519 0.065243 -0.026457
vn -0.997407 0.064348 -0.032231
vn 0.000002 0.894105 -0.447857
vn 0.997473 0.064732 -0.029277
vn 0.997476 0.063485 -0.031798
vn 0.997462 0.065979 -0.026756
vn -0.000000 -0.926708 0.375782
vn 0.000000 0.312119 0.950043
vn 0.000000 -0.284863 -0.958568
# 16 normals

g Box01
s 1
f 3/1/1 2/2/1 1/3/1
f 3/1/1 4/4/1 2/2/1
s 2
f 5/1/2 4/2/2 3/3/2
f 5/1/2 6/4/2 4/2/2
s 1
f 7/1/3 6/2/3 5/3/3
f 7/1/3 8/4/3 6/2/3
s 2
f 1/1/4 8/2/4 7/3/4
f 1/1/4 2/4/4 8/2/4
s 3
f 5/1/5 1/2/5 7/3/5
f 5/1/5 3/4/5 1/2/5
f 4/1/6 8/2/6 2/3/6
f 4/1/6 6/4/6 8/2/6
# 12 triangles in group

g Box02
s 1
f 11/1/7 10/2/7 9/3/8
f 11/1/7 12/4/9 10/2/7
s 2
f 13/1/10 12/2/10 11/3/10
f 13/1/10 14/4/10 12/2/10
s 1
f 15/1/11 14/2/11 13/3/12
f 15/1/11 16/4/13 14/2/11
s 2
f 9/1/14 16/2/14 15/3/14
f 9/1/14 10/4/14 16/2/14
s 3
f 13/1/15 9/2/15 15/3/15
f 13/1/15 11/4/15 9/2/15
f 12/1/16 16/2/16 10/3/16
f 12/1/16 14/4/16 16/2/16
# 12 triangles in group

# 24 triangles total

